<svg xmlns="http://www.w3.org/2000/svg" fill="none" viewBox="0 0 30 30" height="30" width="30">
<path fill="#2D2A24" d="M15 29.4375C7.03125 29.4375 0.609375 22.9688 0.609375 15C0.609375 7.03125 7.03125 0.609375 15 0.609375C22.9688 0.609375 29.4375 7.03125 29.4375 15C29.4375 22.9688 22.9688 29.4375 15 29.4375ZM15 2.25C7.96875 2.25 2.25 7.96875 2.25 15C2.25 22.0312 7.96875 27.7969 15 27.7969C22.0312 27.7969 27.7969 22.0312 27.7969 15C27.7969 7.96875 22.0312 2.25 15 2.25Z"></path>
<path fill="#2D2A24" d="M13.4062 18.2812C13.0781 18.2812 12.7969 18.1875 12.5156 17.9531L9.42188 14.9531C9.09375 14.625 9.09375 14.1094 9.42188 13.7812C9.75 13.4531 10.2656 13.4531 10.5938 13.7812L13.4062 16.5469L19.4063 10.7344C19.7344 10.4063 20.25 10.4063 20.5781 10.7344C20.9063 11.0625 20.9063 11.5781 20.5781 11.9062L14.3438 18C14.0156 18.1875 13.6875 18.2812 13.4062 18.2812Z"></path>
</svg>
