<svg width="55" height="29" viewBox="0 0 55 29" fill="none" xmlns="http://www.w3.org/2000/svg"><path d="M10.005 26.5349C6.00501 26.5349 3.41 23.7599 0.71 19.4499H0L0.525002 28.4499H1.085L2.735 26.1299C4.90679 27.5677 7.43661 28.3711 10.04 28.4499C15.54 28.4499 20.01 25.4499 20.01 20.1699C20.01 15.7449 17.465 13.7949 13.34 12.4849L9.78001 11.3999C6.89501 10.4999 5.62001 9.37486 5.62001 7.01486C5.62001 4.65486 7.49501 3.15486 10.08 3.15486C13.715 3.15486 15.7 5.58986 18.25 9.48486H18.75L18.635 1.48486H18.135L16.52 3.35986C14.5771 2.17179 12.352 1.52446 10.075 1.48486C4.23001 1.48486 0.445 4.55986 0.445 9.24486C0.445 13.3299 2.805 15.3899 7.37501 16.8549L10.875 17.9399C13.5 18.7249 14.925 19.9399 14.925 22.3249C14.915 24.9999 13.115 26.5349 10.005 26.5349Z" fill="#2D2A24"></path> <path d="M28.1498 6.78517C28.5851 6.79864 29.0186 6.7241 29.4244 6.56599C29.8301 6.40789 30.1998 6.16949 30.5112 5.86507C30.8226 5.56066 31.0694 5.1965 31.2367 4.79443C31.404 4.39235 31.4884 3.96064 31.4848 3.52517C31.4515 2.6676 31.0874 1.85624 30.4689 1.26128C29.8504 0.666319 29.0255 0.333984 28.1673 0.333984C27.3091 0.333984 26.4842 0.666319 25.8657 1.26128C25.2472 1.85624 24.8831 2.6676 24.8498 3.52517C24.845 3.958 24.9274 4.38738 25.092 4.7877C25.2567 5.18803 25.5002 5.55112 25.8081 5.85533C26.1161 6.15953 26.4821 6.39864 26.8844 6.55839C27.2867 6.71813 27.7171 6.79526 28.1498 6.78517Z" fill="#2D2A24"></path> <path d="M25.4854 13.7902V23.8352C25.4854 26.3102 25.0704 26.6502 23.4604 27.7352V28.0702H33.0904V27.7352C31.4804 26.6502 31.0904 26.3102 31.0904 23.8352V9.59521H23.1504V9.93021C24.6954 10.9452 25.4854 11.4302 25.4854 13.7902Z" fill="#2D2A24"></path> <path d="M37.6503 4.2V23.835C37.6503 26.31 37.2353 26.65 35.6503 27.735V28.07H45.2803V27.735C43.6703 26.65 43.2803 26.31 43.2803 23.835V0H35.2803V0.34C36.8003 1.31 37.6503 1.835 37.6503 4.2Z" fill="#2D2A24"></path> <path d="M49.6947 4.2V23.835C49.6947 26.31 49.2847 26.65 47.6947 27.735V28.07H57.3297V27.735C55.7147 26.65 55.3047 26.31 55.3047 23.835V0H47.3047V0.34C48.8347 1.31 49.6947 1.835 49.6947 4.2Z" fill="#2D2A24"></path></svg>