<svg width="73" height="29" viewBox="0 0 73 29" fill="none" xmlns="http://www.w3.org/2000/svg"><path d="M7.945 3.49986H10.72V23.5749C10.72 26.0749 10.005 26.5749 8.17 27.7349V28.0699H19.17V27.7349C17.335 26.5749 16.585 26.0499 16.585 23.5749V3.49986H19.355C23.14 3.49986 24.565 6.49986 26.89 9.86986H27.34L26.2 1.60986C25.4613 1.7721 24.7062 1.84761 23.95 1.83486H3.41C2.6538 1.84761 1.8987 1.7721 1.16 1.60986L0 9.85486H0.45C2.735 6.49986 4.16 3.49986 7.945 3.49986Z" fill="#2D2A24"></path> <path d="M31.4999 4.2V23.835C31.4999 26.31 31.0849 26.65 29.4999 27.735V28.07H39.1299V27.735C37.5149 26.65 37.1049 26.31 37.1049 23.835V18.215C37.1049 14.505 38.8299 12.82 40.9649 12.82C43.0999 12.82 43.9649 14.355 43.9649 16.415V23.835C43.9649 26.31 43.5499 26.65 41.9399 27.735V28.07H51.5699V27.735C49.9599 26.65 49.5699 26.31 49.5699 23.835V15.74C49.5699 12.03 47.7349 9.24 43.5399 9.24C40.5749 9.24 38.2899 11 37.1299 14.3V0H29.1299V0.34C30.6599 1.31 31.4999 1.835 31.4999 4.2Z" fill="#2D2A24"></path> <path d="M63.4497 28.4452C67.7597 28.4452 70.7947 26.2752 71.8447 22.3752L71.0597 22.1152C69.7497 24.7352 67.9097 25.6752 65.3997 25.6752C61.8397 25.6752 59.7047 22.7502 59.7047 18.5152H72.2047C72.2047 12.7052 69.1697 9.22021 63.4747 9.22021C58.1147 9.22021 53.8047 13.0052 53.8047 18.8902C53.8197 25.1852 58.1297 28.4452 63.4497 28.4452ZM63.4497 10.8302C65.9997 10.8302 66.5597 13.7952 66.5997 16.8302H59.7797C59.9997 13.4202 61.0547 10.8302 63.4497 10.8302Z" fill="#2D2A24"></path></svg>